<svg version="1.1" id="Layer_1" xmlns="http://www.w3.org/2000/svg" xmlns:xlink="http://www.w3.org/1999/xlink" x="0px" y="0px"
	 width="100%" viewBox="0 0 96 96" enable-background="new 0 0 96 96" xml:space="preserve">
<path fill="#000000" opacity="1.000000" stroke="none" 
	d="
M63.000000,97.000000 
	C42.000000,97.000000 21.500000,97.000000 1.000000,97.000000 
	C1.000000,65.000000 1.000000,33.000000 1.000000,1.000000 
	C33.000000,1.000000 65.000000,1.000000 97.000000,1.000000 
	C97.000000,33.000000 97.000000,65.000000 97.000000,97.000000 
	C85.833336,97.000000 74.666664,97.000000 63.000000,97.000000 
M73.073486,14.012924 
	C71.660843,13.675501 70.249825,13.053106 68.835304,13.045036 
	C55.676495,12.969971 42.516354,12.917212 29.358122,13.032104 
	C21.601034,13.099835 13.052620,21.893623 13.016100,29.692728 
	C12.956821,42.351971 12.974896,55.011761 13.008679,67.671188 
	C13.032237,76.499084 21.451647,84.962776 30.247873,84.990067 
	C42.740700,85.028816 55.233822,85.027603 67.726654,84.990540 
	C76.538734,84.964394 84.963348,76.520676 84.991249,67.696724 
	C85.027054,56.369900 84.666191,45.029915 85.105293,33.720024 
	C85.459969,24.584532 81.547035,18.481422 73.073486,14.012924 
z"/>
<path fill="#36FBB1" opacity="1.000000" stroke="none" 
	d="
M73.448418,14.166446 
	C81.547035,18.481422 85.459969,24.584532 85.105293,33.720024 
	C84.666191,45.029915 85.027054,56.369900 84.991249,67.696724 
	C84.963348,76.520676 76.538734,84.964394 67.726654,84.990540 
	C55.233822,85.027603 42.740700,85.028816 30.247873,84.990067 
	C21.451647,84.962776 13.032237,76.499084 13.008679,67.671188 
	C12.974896,55.011761 12.956821,42.351971 13.016100,29.692728 
	C13.052620,21.893623 21.601034,13.099835 29.358122,13.032104 
	C42.516354,12.917212 55.676495,12.969971 68.835304,13.045036 
	C70.249825,13.053106 71.660843,13.675501 73.448418,14.166446 
M72.619530,25.738474 
	C72.394012,25.488007 72.168495,25.237539 71.778961,24.265547 
	C70.192184,23.510300 68.632576,22.169449 67.014252,22.094397 
	C56.122299,21.589254 45.197601,20.815403 34.324932,21.225819 
	C27.540060,21.481926 21.957270,25.379005 21.645647,32.959602 
	C21.205364,43.670071 21.269178,54.427776 21.728682,65.139069 
	C22.017830,71.879250 26.530640,76.060600 33.053169,76.408348 
	C43.629353,76.972198 54.275940,77.022324 64.852188,76.486916 
	C71.601067,76.145271 76.142303,71.609894 76.484070,64.856773 
	C77.019287,54.281139 76.790695,43.648491 76.395966,33.058250 
	C76.307533,30.685789 74.194153,28.388807 72.619530,25.738474 
z"/>
<path fill="#000000" opacity="1.000000" stroke="none" 
	d="
M73.013008,26.057076 
	C74.194153,28.388807 76.307533,30.685789 76.395966,33.058250 
	C76.790695,43.648491 77.019287,54.281139 76.484070,64.856773 
	C76.142303,71.609894 71.601067,76.145271 64.852188,76.486916 
	C54.275940,77.022324 43.629353,76.972198 33.053169,76.408348 
	C26.530640,76.060600 22.017830,71.879250 21.728682,65.139069 
	C21.269178,54.427776 21.205364,43.670071 21.645647,32.959602 
	C21.957270,25.379005 27.540060,21.481926 34.324932,21.225819 
	C45.197601,20.815403 56.122299,21.589254 67.014252,22.094397 
	C68.632576,22.169449 70.192184,23.510300 71.435150,24.632103 
	C70.264343,24.999460 69.432426,25.059198 68.611198,24.990755 
	C65.234482,24.709326 64.982971,26.792290 64.951706,29.411966 
	C64.916870,32.330925 66.333557,32.969223 68.940933,33.052700 
	C74.865410,33.242378 72.475990,28.851610 73.013008,26.057076 
M38.116859,31.383589 
	C27.309660,37.697250 27.065054,51.931255 31.024645,58.988579 
	C35.179176,66.393356 41.532600,69.292503 50.129040,69.130051 
	C65.966049,68.830757 72.702171,53.336849 67.757973,40.642868 
	C63.180817,28.891273 49.846313,26.065599 38.116859,31.383589 
z"/>
<path fill="#36FBB1" opacity="1.000000" stroke="none" 
	d="
M72.816269,25.897776 
	C72.475990,28.851610 74.865410,33.242378 68.940933,33.052700 
	C66.333557,32.969223 64.916870,32.330925 64.951706,29.411966 
	C64.982971,26.792290 65.234482,24.709326 68.611198,24.990755 
	C69.432426,25.059198 70.264343,24.999460 71.517159,24.992867 
	C72.168495,25.237539 72.394012,25.488007 72.816269,25.897776 
z"/>
<path fill="#35FBB0" opacity="1.000000" stroke="none" 
	d="
M38.468689,31.206621 
	C49.846313,26.065599 63.180817,28.891273 67.757973,40.642868 
	C72.702171,53.336849 65.966049,68.830757 50.129040,69.130051 
	C41.532600,69.292503 35.179176,66.393356 31.024645,58.988579 
	C27.065054,51.931255 27.309660,37.697250 38.468689,31.206621 
M55.339390,58.119270 
	C55.945446,57.550617 56.594002,57.020554 57.150818,56.407200 
	C61.549419,51.562023 61.199089,45.297749 56.292690,40.719795 
	C51.935017,36.653828 45.657185,36.827816 41.298256,41.135365 
	C37.643101,44.747437 36.739067,50.679672 39.241203,54.633663 
	C42.596142,59.935276 48.245544,61.412277 55.339390,58.119270 
z"/>
<path fill="#000000" opacity="1.000000" stroke="none" 
	d="
M55.067490,58.409767 
	C48.245544,61.412277 42.596142,59.935276 39.241203,54.633663 
	C36.739067,50.679672 37.643101,44.747437 41.298256,41.135365 
	C45.657185,36.827816 51.935017,36.653828 56.292690,40.719795 
	C61.199089,45.297749 61.549419,51.562023 57.150818,56.407200 
	C56.594002,57.020554 55.945446,57.550617 55.067490,58.409767 
z"/>
</svg>