<svg version="1.1" id="Layer_1" xmlns="http://www.w3.org/2000/svg" xmlns:xlink="http://www.w3.org/1999/xlink" x="0px" y="0px"
	 width="100%" viewBox="0 0 96 96" enable-background="new 0 0 96 96" xml:space="preserve">
<path fill="#000000" opacity="1.000000" stroke="none" 
	d="
M1.000000,31.000000 
	C1.000000,20.666668 1.000000,10.833337 1.000000,1.000004 
	C32.999992,1.000003 64.999985,1.000003 96.999985,1.000001 
	C96.999985,32.999989 96.999985,64.999977 96.999992,96.999969 
	C65.000015,96.999985 33.000038,96.999985 1.000028,96.999992 
	C1.000000,75.166664 1.000000,53.333332 1.000000,31.000000 
M6.000098,33.528385 
	C6.000205,46.178310 5.982756,58.828270 6.005758,71.478157 
	C6.025537,82.355644 15.721448,91.982574 26.663494,91.995232 
	C41.643703,92.012550 56.623989,92.021332 71.604164,91.992149 
	C82.226158,91.971458 91.966797,82.283691 91.990730,71.703171 
	C92.024986,56.556572 92.026062,41.409779 91.990425,26.263182 
	C91.965569,15.698672 82.210892,6.026628 71.582230,6.007430 
	C56.435604,5.980070 41.285534,5.832549 26.144909,6.135273 
	C22.930967,6.199533 19.460119,7.462776 16.609634,9.066098 
	C7.463512,14.210552 5.106436,22.708294 6.000098,33.528385 
z"/>
<path fill="#36FBB1" opacity="1.000000" stroke="none" 
	d="
M6.000102,33.034756 
	C5.106436,22.708294 7.463512,14.210552 16.609634,9.066098 
	C19.460119,7.462776 22.930967,6.199533 26.144909,6.135273 
	C41.285534,5.832549 56.435604,5.980070 71.582230,6.007430 
	C82.210892,6.026628 91.965569,15.698672 91.990425,26.263182 
	C92.026062,41.409779 92.024986,56.556572 91.990730,71.703171 
	C91.966797,82.283691 82.226158,91.971458 71.604164,91.992149 
	C56.623989,92.021332 41.643703,92.012550 26.663494,91.995232 
	C15.721448,91.982574 6.025537,82.355644 6.005758,71.478157 
	C5.982756,58.828270 6.000205,46.178310 6.000102,33.034756 
M82.035217,78.453346 
	C83.356812,74.047508 85.588440,69.688698 85.819092,65.226471 
	C86.376541,54.441803 86.537102,43.575611 85.870209,32.803413 
	C84.942131,17.812363 80.337288,13.050915 65.185768,12.127347 
	C54.412315,11.470645 43.533600,11.465157 32.761051,12.129221 
	C17.763655,13.053722 13.035220,17.742485 12.125800,32.859028 
	C11.477601,43.633518 11.448578,54.513493 12.133516,65.283417 
	C13.082789,80.209732 17.668329,84.966545 32.899601,85.875511 
	C43.674709,86.518547 54.528519,86.269951 65.328949,85.894470 
	C71.402565,85.683327 77.653381,84.902458 82.035217,78.453346 
z"/>
<path fill="#000000" opacity="1.000000" stroke="none" 
	d="
M81.770630,78.732834 
	C77.653381,84.902458 71.402565,85.683327 65.328949,85.894470 
	C54.528519,86.269951 43.674709,86.518547 32.899601,85.875511 
	C17.668329,84.966545 13.082789,80.209732 12.133516,65.283417 
	C11.448578,54.513493 11.477601,43.633518 12.125800,32.859028 
	C13.035220,17.742485 17.763655,13.053722 32.761051,12.129221 
	C43.533600,11.465157 54.412315,11.470645 65.185768,12.127347 
	C80.337288,13.050915 84.942131,17.812363 85.870209,32.803413 
	C86.537102,43.575611 86.376541,54.441803 85.819092,65.226471 
	C85.588440,69.688698 83.356812,74.047508 81.770630,78.732834 
M28.000191,52.182571 
	C30.134068,67.743767 44.202587,73.241119 56.862988,68.884506 
	C66.678986,65.506691 70.568260,57.702259 70.074745,47.272167 
	C69.326294,31.454449 54.182301,24.392374 41.096474,29.097996 
	C31.055519,32.708691 27.007254,40.714310 28.000191,52.182571 
M74.854309,21.365055 
	C71.568024,20.811731 67.846748,19.975204 67.179749,24.622984 
	C66.910301,26.500523 67.979370,29.780876 69.338615,30.378935 
	C71.088768,31.148993 75.062202,30.546125 75.700294,29.308592 
	C76.678917,27.410658 75.629829,24.467188 74.854309,21.365055 
z"/>
<path fill="#36FBB1" opacity="1.000000" stroke="none" 
	d="
M28.000164,51.728954 
	C27.007254,40.714310 31.055519,32.708691 41.096474,29.097996 
	C54.182301,24.392374 69.326294,31.454449 70.074745,47.272167 
	C70.568260,57.702259 66.678986,65.506691 56.862988,68.884506 
	C44.202587,73.241119 30.134068,67.743767 28.000164,51.728954 
M62.998341,50.286915 
	C64.360603,38.968109 53.403259,32.184158 44.367611,35.464180 
	C37.008488,38.135605 33.856640,42.940960 35.090622,52.275219 
	C35.796272,57.613007 41.077915,63.404354 48.815372,63.079464 
	C56.705780,62.748158 61.678547,58.868618 62.998341,50.286915 
z"/>
<path fill="#36FBB1" opacity="1.000000" stroke="none" 
	d="
M75.147797,21.666245 
	C75.629829,24.467188 76.678917,27.410658 75.700294,29.308592 
	C75.062202,30.546125 71.088768,31.148993 69.338615,30.378935 
	C67.979370,29.780876 66.910301,26.500523 67.179749,24.622984 
	C67.846748,19.975204 71.568024,20.811731 75.147797,21.666245 
z"/>
<path fill="#000000" opacity="1.000000" stroke="none" 
	d="
M62.998741,50.717739 
	C61.678547,58.868618 56.705780,62.748158 48.815372,63.079464 
	C41.077915,63.404354 35.796272,57.613007 35.090622,52.275219 
	C33.856640,42.940960 37.008488,38.135605 44.367611,35.464180 
	C53.403259,32.184158 64.360603,38.968109 62.998741,50.717739 
z"/>
</svg>